HIERARCHY
ROOT Hips
{
	OFFSET 0 0 0
	CHANNELS 6 Xposition Yposition Zposition Xrotation Yrotation Zrotation
	JOINT RightHandThumb1
	{
		OFFSET -1.78 -1.1 1.54
		CHANNELS 3 Xrotation Yrotation Zrotation
		JOINT RightHandThumb2
		{
			OFFSET -3.15004 0 0
			CHANNELS 3 Xrotation Yrotation Zrotation
			JOINT RightHandThumb3
			{
				OFFSET -3.52369 0 0
				CHANNELS 3 Xrotation Yrotation Zrotation
				JOINT RightHandThumb4
				{
					OFFSET -2.58404 0 0
					CHANNELS 3 Xrotation Yrotation Zrotation
					End Site
					{
						OFFSET -0 0 0
					}
				}
			}
		}
	}
	JOINT RightHandIndex1
	{
		OFFSET -7.4073 0.785551 3.77204
		CHANNELS 3 Xrotation Yrotation Zrotation
		JOINT RightHandIndex2
		{
			OFFSET -4.08729 0 0
			CHANNELS 3 Xrotation Yrotation Zrotation
			JOINT RightHandIndex3
			{
				OFFSET -1.89986 0 0
				CHANNELS 3 Xrotation Yrotation Zrotation
				JOINT RightHandIndex4
				{
					OFFSET -1.78024 0 0
					CHANNELS 3 Xrotation Yrotation Zrotation
					End Site
					{
						OFFSET -0 0 0
					}
				}
			}
		}
	}
	JOINT RightHandMiddle1
	{
		OFFSET -8.35792 1.13445 0.717983
		CHANNELS 3 Xrotation Yrotation Zrotation
		JOINT RightHandMiddle2
		{
			OFFSET -4.6 0 0
			CHANNELS 3 Xrotation Yrotation Zrotation
			JOINT RightHandMiddle3
			{
				OFFSET -2.13026 0 0
				CHANNELS 3 Xrotation Yrotation Zrotation
				JOINT RightHandMiddle4
				{
					OFFSET -1.56219 0 0
					CHANNELS 3 Xrotation Yrotation Zrotation
					End Site
					{
						OFFSET -0 0 0
					}
				}
			}
		}
	}
	JOINT RightHandRing1
	{
		OFFSET -7.73062 0.64105 -2.07729
		CHANNELS 3 Xrotation Yrotation Zrotation
		JOINT RightHandRing2
		{
			OFFSET -4.33866 0 0
			CHANNELS 3 Xrotation Yrotation Zrotation
			JOINT RightHandRing3
			{
				OFFSET -2.22865 0 0
				CHANNELS 3 Xrotation Yrotation Zrotation
				JOINT RightHandRing4
				{
					OFFSET -1.63434 0 0
					CHANNELS 3 Xrotation Yrotation Zrotation
					End Site
					{
						OFFSET -0 0 0
					}
				}
			}
		}
	}
	JOINT RightHandPinky1
	{
		OFFSET -7.64414 -0.346801 -3.91753
		CHANNELS 3 Xrotation Yrotation Zrotation
		JOINT RightHandPinky2
		{
			OFFSET -2.756 0 0
			CHANNELS 3 Xrotation Yrotation Zrotation
			JOINT RightHandPinky3
			{
				OFFSET -2.1983 0 0
				CHANNELS 3 Xrotation Yrotation Zrotation
				JOINT RightHandPinky4
				{
					OFFSET -1.30207 0 0
					CHANNELS 3 Xrotation Yrotation Zrotation
					End Site
					{
						OFFSET -0 0 0
					}
				}
			}
		}
	}
}
MOTION
Frames: 11
Frame Time: 0.00833333
0 0.000000 0 0 0 0 0 0 0 0 0 0 0 0 0 0 0 0 0 0 0 0 0 0 0 0 0 0 0 0 0 0 0 0 0 0 0 0 0 0 0 0 0 0 0 0 0 0 0 0 0 0 0 0 0 0 0 0 0 0 0 0 0 0 0 0
-12.75674515 25.10010071 17.82808075 -0.21449273 85.39045815 20.09084332 -41.81782905 30.06929539 35.68212738 0 3.87172703 -0.0000001 0.00000004 12.85456285 -0.00000035 0 -0 -0 -5.73701063 13.75603933 -8.74931537 -0 0 0.06418917 -0 0 -7.22510969 -0 0 0 3.91523429 -2.00369406 -13.70087475 -0 0 -0.11510642 -0 0 -14.5107045 -0 0 0 4.0630101 -12.6695218 -11.70252213 -0 0 -0.21776581 -0 0 -15.45277182 -0 0 0 2.63954051 -35.26216938 -7.76951242 -0 0 -0.65996064 -0 0 -14.13048701 -0 0 0
-12.75539322 25.10573578 17.82289276 -0.48795356 85.36324156 20.36120729 -41.79970318 30.07925161 35.68532195 0 3.88573708 -0.0000001 0.00000004 12.85685036 -0.00000035 0 -0 0 -5.71350444 13.7761356 -8.74553858 -0 0 0.08519581 -0 0 -7.25835396 -0 0 0 3.92999598 -1.98673706 -13.70865982 -0 0 -0.11704943 -0 0 -14.52041744 -0 0 0 4.07656711 -12.65116507 -11.70428209 -0 0 -0.20182362 -0 0 -15.48173682 -0 0 0 2.64697492 -35.25070061 -7.80576129 -0 0 -0.65057542 -0 0 -14.12110193 -0 0 0
-12.75581207 25.10939941 17.81739197 -0.72132745 85.3409294 20.59147019 -41.77762996 30.09067159 35.68825113 0 3.89316409 -0.0000001 0.00000004 12.85850419 -0.00000035 -0 0 -0 -5.6911579 13.7936322 -8.73752376 -0 0 0.07915542 -0 0 -7.26871479 -0 0 0 3.9480625 -1.97184758 -13.71267999 -0 0 -0.12146105 -0 0 -14.52989574 -0 0 0 4.09553278 -12.6329622 -11.69834025 -0 0 -0.20394246 -0 0 -15.49872385 -0 0 0 2.65799559 -35.24347245 -7.84391508 -0 0 -0.64013368 -0 0 -14.11065958 -0 0 0
-12.75635147 25.11500397 17.81277161 -0.936772 85.32438394 20.80330408 -41.75537113 30.10226405 35.68940608 0 3.88996015 -0.0000001 0.00000004 12.86055534 -0.00000035 -0 0 -0 -5.66462006 13.80771381 -8.72825524 -0 0 0.09773756 -0 0 -7.30562101 -0 0 0 3.97331666 -1.9649482 -13.71250151 -0 0 -0.11135575 -0 0 -14.56463196 -0 0 0 4.12414176 -12.61991734 -11.68929069 -0 0 -0.20963099 -0 0 -15.51594805 -0 0 0 2.67422054 -35.23832406 -7.87983652 -0 0 -0.6287985 -0 0 -14.09932429 -0 0 0
-12.75569153 25.11955566 17.80795593 -1.16594905 85.31177692 21.03168236 -41.73380462 30.11417785 35.68614741 0 3.88288814 -0.0000001 0.00000004 12.85529741 -0.00000035 -0 0 0 -5.63614324 13.81096155 -8.72157816 -0 0 0.09132286 -0 0 -7.3143019 -0 0 0 4.00097799 -1.96556071 -13.71246835 -0 0 -0.10489646 -0 0 -14.5956194 -0 0 0 4.15654818 -12.61832983 -11.67999775 -0 0 -0.20902153 -0 0 -15.53147191 -0 0 0 2.69043736 -35.23767909 -7.91526191 -0 0 -0.61594301 -0 0 -14.08646916 -0 0 0
-12.7555275 25.1244339 17.80404816 -1.43015549 85.29494327 21.29273338 -41.71355989 30.12561419 35.68206037 0 3.87318885 -0.0000001 0.00000004 12.84610392 -0.00000035 0 -0 -0 -5.60909748 13.80959704 -8.70086188 -0 0 0.12417976 -0 0 -7.35821251 -0 0 0 4.03003766 -1.96748645 -13.71959636 -0 0 -0.16369369 -0 0 -14.53482211 -0 0 0 4.18749155 -12.61802716 -11.67267605 -0 0 -0.23130491 -0 0 -15.51985632 -0 0 0 2.71162012 -35.23782898 -7.94371922 -0 0 -0.6026452 -0 0 -14.07317179 -0 0 0
-12.75504379 25.12722473 17.80048065 -1.64968151 85.27671586 21.50641043 -41.69723167 30.13445067 35.68057462 0 3.86425864 -0.0000001 0.00000004 12.83971912 -0.00000035 -0 -0 -0 -5.59183704 13.8107207 -8.70062555 -0 0 -0.01441212 -0 0 -7.21484005 -0 0 0 4.04278311 -1.96481181 -13.71762344 -0 0 -0.13891072 -0 0 -14.56679228 -0 0 0 4.1989351 -12.6105985 -11.66858633 -0 0 -0.24440057 -0 0 -15.5092837 -0 0 0 2.72534888 -35.23864613 -7.9629452 -0 0 -0.59298538 -0 0 -14.06351222 -0 0 0
-12.75412674 25.13127136 17.79603271 -1.79040246 85.26853547 21.6391961 -41.68688962 30.13833248 35.68258534 0 3.85492331 -0.0000001 0.00000004 12.83810169 -0.00000035 -0 0 0 -5.58548055 13.8039811 -8.71433681 -0 0 -0.10293596 -0 0 -7.10939344 -0 0 0 4.04181127 -1.9638498 -13.70820479 -0 0 -0.12393878 -0 0 -14.58457297 -0 0 0 4.20176367 -12.60743159 -11.66000929 -0 0 -0.24507447 -0 0 -15.50259736 -0 0 0 2.73120181 -35.24051724 -7.98101975 -0 0 -0.57980801 -0 0 -14.05033431 -0 0 0
-12.75428391 25.13470764 17.79141083 -1.91946779 85.26514172 21.75558993 -41.68058212 30.13842553 35.68949835 0 3.84917338 -0.0000001 0.00000004 12.83902095 -0.00000035 0 -0 0 -5.5797793 13.79407248 -8.732597 -0 0 -0.14791295 -0 0 -7.04148358 -0 0 0 4.04437059 -1.96533258 -13.69238651 -0 0 -0.13274411 -0 0 -14.57680938 -0 0 0 4.20989424 -12.60791023 -11.64565782 -0 0 -0.24476689 -0 0 -15.5027041 -0 0 0 2.74474657 -35.24528932 -7.99613766 -0 0 -0.56925795 -0 0 -14.03978435 -0 0 0
-12.75387192 25.13806763 17.78635406 -2.03122851 85.26393589 21.84648827 -41.67704284 30.13642468 35.70079203 0 3.84041685 -0.0000001 0.00000004 12.83794074 -0.00000035 0 0 0 -5.57332694 13.7845298 -8.74649326 -0 0 -0.14319152 -0 0 -7.02532286 -0 0 0 4.04832318 -1.96817425 -13.67076694 -0 0 -0.12026897 -0 0 -14.59612095 -0 0 0 4.21935699 -12.61065875 -11.62893073 -0 0 -0.24889302 -0 0 -15.50524747 -0 0 0 2.76106918 -35.25574978 -8.00402722 -0 0 -0.56167487 -0 0 -14.03220123 -0 0 0
